# xmcd
# 
# Track frame offsets:
#     150
#     16634
#     33038
#     44930
# 
# Disc length: 830
# 
# Revision: 2
# Processed by: cddbd v1.5.2PL0 Copyright (c) Steve Scherf et al.
# Submitted via: BonkEnc v1.0.8
# 
DISCID=26033c04
DTITLE=Ryszard Rynkowski - Koledy
DYEAR=0
DGENRE=CHRISTMAS
TTITLE0=BÓG SIĘ RODZI
TTITLE1=HEJ BRACIA CZY ŚPICIE
TTITLE2=HEJ WDZIEN NARODZENIA
TTITLE3=MIZERNA CICHA STAJENKA
EXTD=
EXTT0=
EXTT1=
EXTT2=
EXTT3=
PLAYORDER=
